# xmcd
#
# Track frame offsets:
#   150
#   2977
#   12535
#   23618
#   34560
#   42357
#   47858
#   54174
#   61101
#   66782
#   73294
#   79530
#   84104
#   88815
#   96988
#   102538
#   108358
#   114039
#   118257
#   125460
#   130034
#   134892
#   139605
#   145980
#   161479
#   167626
#   173566
#   182088
#   188496
#   195809
#   200244
#   206482
#   210778
#   217429
#   224770
#   228653
#   234195
#   242094
#   246529
#   253317
#   259539
#   266464
#   272600
#   276481
#   283130
#   288672
#   295323
#   300034
#   303709
#   307210
#   314033
#   319023
#   322904
#   329016
#   334282
#   338026
#
# Disc length: 4620 seconds
#
# Revision: 0
# Processed by: cddbd v1.5.2PL0 Copyright (c) Steve Scherf et al.
# Submitted via: uFREEDB ActiveX Control 1.5
#
DISCID=5d120a38
DTITLE=noite da sapequinha  - noite da sapequinha 
DYEAR=1900
DGENRE=Books and Spoken
TTITLE0=noite da sapequinha 1
TTITLE1=noite da sapequinha 2
TTITLE2=noite da sapequinha  3
TTITLE3=noite da sapequinha  4
TTITLE4=noite da sapequinha 5
TTITLE5=noite da sapequinha 6
TTITLE6=noite da sapequinha 7
TTITLE7=noite da sapequinha 8
TTITLE8=noite da sapequinha 9
TTITLE9=noite da sapequinha 10
TTITLE10=noite da sapequinha 11
TTITLE11=noite da sapequinha  12
TTITLE12=noite da sapequinha  13
TTITLE13=noite da sapequinha  14
TTITLE14=noite da sapequinha  15
TTITLE15=noite da sapequinha  16
TTITLE16=noite da sapequinha  17
TTITLE17=noite da sapequinha  18
TTITLE18=noite da sapequinha  19
TTITLE19=noite da sapequinha  20
TTITLE20=noite da sapequinha  21
TTITLE21=noite da sapequinha  22
TTITLE22=noite da sapequinha  23
TTITLE23=noite da sapequinha  24
TTITLE24=noite da sapequinha 25
TTITLE25=noite da sapequinha  26
TTITLE26=noite da sapequinha  27
TTITLE27=noite da sapequinha  28
TTITLE28=noite da sapequinha  29
TTITLE29=noite da sapequinha 30
TTITLE30=noite da sapequinha  31
TTITLE31=noite da sapequinha  32
TTITLE32=noite da sapequinha  33
TTITLE33=noite da sapequinha  34
TTITLE34=noite da sapequinha  35
TTITLE35=noite da sapequinha  36
TTITLE36=noite da sapequinha 37
TTITLE37=noite da sapequinha  38
TTITLE38=noite da sapequinha  39
TTITLE39=noite da sapequinha 40
TTITLE40=noite da sapequinha 41
TTITLE41=noite da sapequinha  42
TTITLE42=noite da sapequinha 43
TTITLE43=noite da sapequinha  44
TTITLE44=noite da sapequinha  45
TTITLE45=noite da sapequinha  46
TTITLE46=noite da sapequinha  47
TTITLE47=noite da sapequinha  48
TTITLE48=noite da sapequinha  49
TTITLE49=noite da sapequinha  50
TTITLE50=noite da sapequinha  51
TTITLE51=noite da sapequinha  52
TTITLE52=noite da sapequinha  53
TTITLE53=noite da sapequinha  54
TTITLE54=noite da sapequinha  55
TTITLE55=noite da sapequinha  56
EXTD=
EXTT0=
EXTT1=
EXTT2=
EXTT3=
EXTT4=
EXTT5=
EXTT6=
EXTT7=
EXTT8=
EXTT9=
EXTT10=
EXTT11=
EXTT12=
EXTT13=
EXTT14=
EXTT15=
EXTT16=
EXTT17=
EXTT18=
EXTT19=
EXTT20=
EXTT21=
EXTT22=
EXTT23=
EXTT24=
EXTT25=
EXTT26=
EXTT27=
EXTT28=
EXTT29=
EXTT30=
EXTT31=
EXTT32=
EXTT33=
EXTT34=
EXTT35=
EXTT36=
EXTT37=
EXTT38=
EXTT39=
EXTT40=
EXTT41=
EXTT42=
EXTT43=
EXTT44=
EXTT45=
EXTT46=
EXTT47=
EXTT48=
EXTT49=
EXTT50=
EXTT51=
EXTT52=
EXTT53=
EXTT54=
EXTT55=
PLAYORDER=
